<?xml version="1.0" standalone="no"?>
<!DOCTYPE svg PUBLIC "-//W3C//DTD SVG 20010904//EN"
 "http://www.w3.org/TR/2001/REC-SVG-20010904/DTD/svg10.dtd">
<svg version="1.0" xmlns="http://www.w3.org/2000/svg"
 width="1024.000000pt" height="1024.000000pt" viewBox="0 0 1024.000000 1024.000000"
 preserveAspectRatio="xMidYMid meet">

<g transform="translate(0.000000,1024.000000) scale(0.100000,-0.100000)"
fill="#000000" stroke="none">
<path d="M3387 7120 c-291 -49 -547 -243 -679 -515 -74 -155 -92 -237 -93
-435 0 -142 3 -177 23 -249 27 -98 77 -211 130 -293 l37 -58 76 0 76 0 7 78
c9 93 24 168 41 202 12 22 10 39 -12 120 -22 85 -24 109 -20 235 3 120 8 152
33 225 52 156 167 294 298 359 328 161 699 -11 823 -384 24 -71 27 -96 27
-225 1 -121 -3 -158 -21 -221 -22 -75 -22 -76 -3 -136 10 -33 21 -103 24 -154
l5 -94 85 -3 85 -3 50 82 c96 156 142 324 142 516 -1 288 -99 515 -308 713
-184 174 -385 251 -653 249 -69 -1 -147 -5 -173 -9z"/>
<path d="M1820 6175 l0 -905 175 0 175 0 0 905 0 905 -175 0 -175 0 0 -905z"/>
<path d="M4543 7058 c2 -13 62 -171 132 -353 181 -469 342 -890 452 -1183 l96
-252 226 2 226 3 58 150 c64 166 411 1074 543 1420 46 121 84 223 84 228 0 4
-87 7 -193 7 l-194 0 -51 -137 c-120 -325 -354 -961 -408 -1110 -33 -90 -61
-163 -64 -163 -3 0 -38 93 -79 205 -40 113 -158 429 -260 703 l-187 497 -193
3 -193 2 5 -22z"/>
<path d="M6602 6448 c3 -633 3 -633 27 -703 99 -298 325 -470 662 -505 101
-10 260 -1 342 20 102 26 211 80 289 143 99 80 192 235 225 376 19 83 19 59
15 834 l-2 467 -175 0 -175 0 0 -578 c0 -547 -1 -583 -20 -658 -49 -193 -196
-304 -403 -304 -153 0 -274 59 -348 169 -76 113 -73 85 -77 764 l-3 607 -180
0 -180 0 3 -632z"/>
<path d="M3548 6143 c7 -3 16 -2 19 1 4 3 -2 6 -13 5 -11 0 -14 -3 -6 -6z"/>
<path d="M3254 6028 l-19 -23 23 19 c21 18 27 26 19 26 -2 0 -12 -10 -23 -22z"/>
<path d="M3102 5655 c0 -16 2 -22 5 -12 2 9 2 23 0 30 -3 6 -5 -1 -5 -18z"/>
<path d="M3102 5600 c0 -14 2 -19 5 -12 2 6 2 18 0 25 -3 6 -5 1 -5 -13z"/>
<path d="M2848 5443 c12 -2 30 -2 40 0 9 3 -1 5 -23 4 -22 0 -30 -2 -17 -4z"/>
<path d="M2988 5443 c12 -2 30 -2 40 0 9 3 -1 5 -23 4 -22 0 -30 -2 -17 -4z"/>
<path d="M3078 5443 c7 -3 16 -2 19 1 4 3 -2 6 -13 5 -11 0 -14 -3 -6 -6z"/>
<path d="M3448 5443 c7 -3 16 -2 19 1 4 3 -2 6 -13 5 -11 0 -14 -3 -6 -6z"/>
<path d="M3018 5273 c7 -3 16 -2 19 1 4 3 -2 6 -13 5 -11 0 -14 -3 -6 -6z"/>
<path d="M3178 5273 c12 -2 30 -2 40 0 9 3 -1 5 -23 4 -22 0 -30 -2 -17 -4z"/>
<path d="M3258 5273 c7 -3 16 -2 19 1 4 3 -2 6 -13 5 -11 0 -14 -3 -6 -6z"/>
<path d="M5960 4994 c-225 -28 -406 -119 -562 -283 -97 -102 -160 -211 -205
-357 -25 -83 -27 -101 -27 -269 0 -170 2 -185 28 -265 54 -162 126 -280 237
-386 164 -155 344 -230 584 -241 266 -12 485 66 667 236 132 124 214 259 259
426 29 105 31 334 6 439 -82 332 -338 596 -655 676 -75 19 -261 33 -332 24z
m281 -326 c330 -123 485 -538 324 -866 -62 -124 -183 -236 -306 -281 -313
-115 -627 45 -738 374 -58 176 -27 400 80 559 71 107 157 173 283 218 74 27
90 29 186 25 80 -3 121 -10 171 -29z"/>
<path d="M2275 4984 c-11 -2 -45 -9 -75 -15 -188 -38 -357 -191 -398 -359 -40
-166 -9 -314 88 -423 81 -91 204 -146 495 -223 191 -49 277 -91 316 -152 23
-36 29 -57 29 -99 0 -95 -47 -161 -144 -204 -91 -40 -283 -36 -371 8 -74 37
-138 123 -151 202 l-7 41 -158 0 -159 0 0 -47 c1 -175 123 -355 301 -442 114
-55 182 -72 324 -78 405 -17 705 212 705 537 0 180 -93 321 -269 409 -83 41
-166 70 -366 126 -148 41 -227 74 -269 113 -110 103 -48 281 111 321 64 17
191 13 248 -7 85 -29 144 -90 169 -174 5 -16 22 -18 166 -18 l161 0 -6 38
c-29 168 -135 307 -293 383 -85 41 -224 69 -337 68 -49 -1 -99 -3 -110 -5z"/>
<path d="M7518 4962 l-328 -2 0 -865 0 -865 175 0 175 0 0 295 0 295 224 0
c257 0 316 9 436 68 312 153 396 565 175 852 -77 101 -175 164 -307 199 -90
25 -141 27 -550 23z m482 -320 c100 -52 150 -127 158 -235 8 -115 -40 -202
-142 -255 -50 -26 -57 -26 -263 -30 l-213 -4 0 277 0 277 208 -4 c194 -3 210
-4 252 -26z"/>
<path d="M3301 4095 l0 -865 180 0 179 0 0 370 0 370 445 0 445 0 0 -370 0
-370 170 0 170 0 0 865 0 865 -155 0 -155 0 0 -44 c0 -25 4 -136 10 -248 5
-112 12 -247 14 -300 l5 -98 -475 0 -474 0 0 345 0 345 -180 0 -179 0 0 -865z"/>
</g>
</svg>
